<svg xmlns="http://www.w3.org/2000/svg" width="18" height="18"><path d="M9.75 18c-.056-1.944-.1-5.088-.1-7.248V7.9c0-2.16.042-6.144.1-7.9a6.8 6.8 0 01-.736.048A6.872 6.872 0 018.25 0c.056 1.752.1 5.736.1 7.9v2.856c0 2.156-.044 5.324-.1 7.244a6.872 6.872 0 01.764-.048A6.566 6.566 0 019.75 18z" fill="#111"/><path d="M0 9.75c1.944-.056 5.088-.1 7.248-.1H10.1c2.16 0 6.144.042 7.9.1a6.8 6.8 0 01-.048-.736A6.872 6.872 0 0118 8.25c-1.752.056-5.736.1-7.9.1H7.244c-2.156 0-5.324-.044-7.244-.1a6.872 6.872 0 01.048.764A6.566 6.566 0 010 9.75z" fill="#111"/></svg>