<svg xmlns="http://www.w3.org/2000/svg" viewBox="0 0 18 12"><path d="M18 10.5c-1.944.056-5.088.177-7.248.177H7.9c-2.16 0-6.144-.122-7.9-.177a6.8 6.8 0 01.048.736A6.872 6.872 0 010 12c1.752-.056 5.736-.165 7.9-.165h2.856c2.156 0 5.324.109 7.244.165a6.872 6.872 0 01-.048-.764A6.566 6.566 0 0118 10.5zm0-5.25c-1.944.056-5.088.177-7.248.177H7.9c-2.16 0-6.144-.122-7.9-.177a6.8 6.8 0 01.048.736A6.872 6.872 0 010 6.75c1.752-.056 5.736-.165 7.9-.165h2.856c2.156 0 5.324.109 7.244.165a6.872 6.872 0 01-.048-.764A6.566 6.566 0 0118 5.25zM18 0c-1.944.056-5.088.2-7.248.2H7.9C5.74.2 1.756.058 0 0a6.831 6.831 0 01.068.736A6.902 6.902 0 010 1.5c1.752-.056 5.736-.2 7.9-.2h2.856c2.156 0 5.324.144 7.244.2a6.902 6.902 0 01-.068-.764A6.596 6.596 0 0118 0z"/></svg>