<svg xmlns="http://www.w3.org/2000/svg" width="13.789" height="13.789"><path d="M13.789 12.728a296.617 296.617 0 01-5.196-5.054L6.576 5.657C5.05 4.13 2.261 1.283 1.061 0a6.798 6.798 0 01-.487.554A6.874 6.874 0 010 1.061C1.278 2.26 4.127 5.046 5.657 6.576l2.02 2.02a295.088 295.088 0 015.05 5.193 6.874 6.874 0 01.507-.575 6.567 6.567 0 01.555-.486z" fill="#111"/><path d="M1.06 13.789a296.797 296.797 0 015.055-5.196l2.017-2.017c1.527-1.527 4.374-4.315 5.657-5.515a6.8 6.8 0 01-.555-.487A6.874 6.874 0 0112.728 0c-1.2 1.278-3.985 4.127-5.516 5.657l-2.019 2.02A295.158 295.158 0 010 12.726a6.874 6.874 0 01.574.507 6.567 6.567 0 01.487.555z" fill="#111"/></svg>