<svg xmlns="http://www.w3.org/2000/svg" width="20" height="16"><path d="M17.056 11.961a35.886 35.886 0 00-4.388-1.636c1.805-1.484 2.713-2.366 2.713-5.241A5.066 5.066 0 0010 0a5.066 5.066 0 00-5.381 5.084c0 2.875.908 3.757 2.713 5.241a35.886 35.886 0 00-4.388 1.636C1.419 12.788 0 13.936 0 16a2.549 2.549 0 01.809-.1 3.091 3.091 0 01.873.1 4.338 4.338 0 012.578-3.46c.516-.295 1.098-.518 2.096-.975a26.987 26.987 0 012.113-.85v-.44a7.306 7.306 0 01-.647-.522c-1.491-1.405-1.665-2.6-1.665-4.669 0-2.07.746-4.53 3.843-4.53s3.843 2.46 3.843 4.53c0 2.07-.174 3.264-1.665 4.669a7.306 7.306 0 01-.647.522v.44s.847.286 2.113.85c.998.457 1.58.68 2.096.975A4.338 4.338 0 0118.318 16a3.091 3.091 0 01.873-.1A2.549 2.549 0 0120 16c0-2.064-1.419-3.212-2.944-4.039z" fill="#111"/></svg>