<svg xmlns="http://www.w3.org/2000/svg" viewBox="0 0 133.507 65.197"><path d="M58.163 18.058c-1.814-.073-3.627-.218-5.512-.145-1.668 0-4.279.145-7.833.217 0 .073-.145 1.233-.362 3.481.508.436 1.088.87 1.596 1.379q.761.76.652 1.087-.217.544-1.958.653c-1.015 0-2.03 0-3.118-.073-3.337.218-6.672.363-9.936.58l-.072 4.207c3.916-.218 6.89-.436 8.992-.58.363-.364 1.306-1.306 2.684-2.901q.979.652 3.698 2.61c.943.726 1.378 1.379 1.16 1.886-.145.217-1.015.362-2.538.362h-5.004c-.362.073-3.408.218-8.992.58v4.497c5.874-.362 10.878-.58 15.012-.725.652-.725 1.595-1.885 2.973-3.408l4.206 2.9q1.632 1.196 1.305 1.959c-.144.29-.725.435-1.812.362-1.958-.072-4.352 0-7.108.073-3.48.145-8.775.434-15.954.797-3.554.218-9.356.726-17.478 1.668-1.015.145-3.118.508-6.237 1.088q-.544-1.087-1.74-3.046a82.287 82.287 0 008.267-.507c3.843-.363 8.703-.653 14.432-.943l.072-4.496c-5.439.362-10.37.797-14.867 1.45a22.06 22.06 0 01-1.377-2.61c1.74 0 3.698-.074 5.874-.146 1.74-.073 5.221-.29 10.37-.58v-4.279c-2.828.218-5.947.58-9.21.943a43.593 43.593 0 00-4.424.797c-.072-.072-.725-1.015-1.813-2.755 1.596-.073 3.699-.073 6.237-.218 1.958-.145 5.004-.507 9.138-.87 0-.362.072-1.088.072-2.03v-2.104c-2.828.218-6.744.58-11.603 1.016-1.233.145-4.352.435-9.21 1.015a49.368 49.368 0 00-4.932.798A22.322 22.322 0 010 18.71c1.45-.072 3.554-.144 6.382-.217a288.45 288.45 0 009.5-.508c2.611-.145 6.527-.58 11.676-.943l-.072-4.35c-3.119.144-7.688.507-13.78 1.16a24.86 24.86 0 01-1.667-3.047c1.377.073 3.336.073 6.019 0 3.263-.072 6.382-.217 9.428-.362l-.073-5.73c0-1.957-.145-3.48-.217-4.713.943.217 2.393.508 4.206.943q2.285.543 2.393 1.305c.073.363-.653 1.16-2.103 2.393v5.585c2.973-.146 5.947-.363 8.848-.58l2.393-2.829c3.191 2.103 4.787 3.409 4.787 3.844a2.508 2.508 0 01-1.088 1.378l-1.45 1.015c-.073 1.015-.073 1.958-.146 2.828 1.523-.072 3.626-.217 6.165-.435l3.408-3.988c1.813 1.305 3.263 2.465 4.424 3.48 1.378 1.233 2.03 2.103 1.813 2.611-.145.363-1.016.58-2.683.508zM43.223 46.63c0 2.031.073 5.222.218 9.646.072 2.538 0 4.134-.29 4.786a5.48 5.48 0 01-1.886 2.466 3.162 3.162 0 01-2.828.652c-.146-.072-.218-.724-.218-2.102a5.2 5.2 0 01.072-.943v-1.16c-6.744.145-12.546.435-17.55.942a6.634 6.634 0 01-1.523 3.119c-.797.797-1.378 1.16-1.813 1.16a.613.613 0 01-.435-.145 10.497 10.497 0 010-2.394c.073-2.537.073-5.366 0-8.412-.073-2.103-.362-5.15-.653-8.993l-.29-4.06a60.372 60.372 0 015.222 2.32c1.523-.073 4.134-.218 7.687-.508 2.393-.145 5.512-.362 9.283-.507a25.446 25.446 0 012.103-2.611c.073 0 1.015.725 2.974 2.103 1.377.942 2.03 1.74 2.03 2.32.073.508-.653 1.234-2.103 2.321zm-14.65-1.378c-1.667.146-4.423.363-8.34.654l.218 4.93c.508-.072 1.741-.144 3.844-.362 1.233-.073 3.046-.29 5.439-.58a28.612 28.612 0 004.932-1.16c1.16 1.377 1.668 2.248 1.523 2.683-.073.217-1.451.507-4.28.725-1.305.072-3.48.29-6.454.508-2.248.218-3.916.363-4.859.435l.073.362c0 .145.072 1.813.145 5.077 2.103-.217 4.86-.508 8.267-.653 2.103-.145 5.15-.217 9.21-.435V55.19c0-3.771.218-7.252.218-10.516-3.988.218-7.252.435-9.936.58zm3.12-32.852v4.352c1.885-.073 4.713-.29 8.484-.508.145-1.74.218-3.191.29-4.424-1.885.072-4.786.29-8.775.58zm8.339 6.092l-8.34.508v4.206q2.72-.109 8.05-.435zm59.389 22.845a21.684 21.684 0 01-2.175.073c-1.45.072-3.481.29-6.164.508v3.19h.217a15.216 15.216 0 015.222 1.016c2.248.87 3.408 2.03 3.481 3.554a2.269 2.269 0 01-2.03 2.683 1.966 1.966 0 01-2.177-1.233 19.471 19.471 0 00-1.087-2.176 7.913 7.913 0 00-3.626-2.828c.072 2.683.072 6.672-.218 11.966 0 .652-.58 1.378-1.45 2.176a3.645 3.645 0 01-2.32 1.305c-.581 0-.8-.508-.871-1.45a9.355 9.355 0 01.218-1.886c.361-2.756.507-5.221.58-7.034.072-1.089.217-2.829.29-5.15a54.462 54.462 0 01-9.356 8.123 55.976 55.976 0 01-7.832 4.424c-1.233.58-2.031.797-2.394.58-.145-.073-.217-.146-.217-.29 0-.29.508-.725 1.45-1.233a63.006 63.006 0 006.237-4.207 65.449 65.449 0 006.745-5.728c.798-.799 2.32-2.612 4.569-5.367l-9.138.942a53.607 53.607 0 00-4.206.58 19.437 19.437 0 01-1.596-2.32c1.451-.073 3.409-.145 5.875-.29 1.668-.073 5.004-.363 10.153-.87.072-1.233.072-2.829.072-4.86-.943.073-1.958.145-3.191.29-.943.073-2.321.363-4.134.581-.217-.436-.653-1.16-1.232-2.103 1.232-.073 2.755-.146 4.568-.29l3.989-.29v-4.134c-2.176.073-4.06.29-5.729.435l-4.57.362a15.198 15.198 0 01-1.667-2.102c1.305-.073 3.119 0 5.367-.145l6.599-.363c0-1.16-.145-2.32-.145-3.481A39.619 39.619 0 0087.093 19c.725.145 1.958.435 3.771.87 1.74.435 2.61.87 2.539 1.305a7.724 7.724 0 01-1.813 2.031l-.218 4.279c1.015-.073 1.958-.073 2.755-.145a22.358 22.358 0 012.176-2.901c.58.507 1.45 1.16 2.61 2.103.944.798 1.379 1.45 1.234 1.886-.145.29-.943.434-2.32.507q-2.068.108-6.528.435c-.072 1.233-.072 2.611-.072 4.134l1.885-.145c.363-.435 1.015-1.16 1.959-2.248q4.133 2.72 3.916 3.263c-.073.218-1.16.435-3.264.58l-4.569.29c0 1.669 0 3.264-.072 4.787l2.755-.29c.508-.653 1.306-1.596 2.394-2.901 3.045 2.176 4.496 3.554 4.35 4.061-.071.29-.434.435-1.16.435zm1.523-28.936c-1.015 0-2.465 0-4.278.073l-3.7.217c.509.435 1.234.87 2.105 1.523a7.85 7.85 0 012.973 3.336 1.785 1.785 0 01-1.16 2.466 1.768 1.768 0 01-2.539-.943 35.834 35.834 0 00-3.699-6.31l-2.537.146a48.21 48.21 0 01-4.715 5.366 57.385 57.385 0 01-6.382 4.57 6.36 6.36 0 01-3.19 1.232.844.844 0 01-.508-.145c-.218-.29.58-1.16 2.32-2.61a46.83 46.83 0 006.382-6.6 25.808 25.808 0 004.57-8.775A67.76 67.76 0 0087.6 2.176c.725.29 1.74.652 3.045 1.305a24.202 24.202 0 012.249 1.16c.725.436 1.087.87 1.087 1.233 0 .653-.725 1.016-2.175 1.233a81.71 81.71 0 01-2.393 3.989c1.668-.073 4.06-.218 7.034-.363l1.813-2.538c.87.508 2.104 1.305 3.699 2.248.942.508 1.305 1.016 1.233 1.378-.073.363-.87.653-2.249.58zm30.895 25.455c-.436 0-1.741 0-3.989.073q-4.352.108-12.4.435c-2.83.145-5.658.363-8.486.58-1.233.073-3.118.29-5.802.653a23.163 23.163 0 01-1.668-2.393q2.72 0 8.05-.218c-.072-1.233-.217-3.19-.29-6.019a155.94 155.94 0 00-5.439.725 28.085 28.085 0 01-1.45-2.466c1.522-.072 3.77-.145 6.744-.363l-.145-3.843q-.11-1.958-.436-5.657c.436.073 1.16.29 2.104.508.798.217 1.595.508 2.393.725q.979.327 1.088.87c.072.363-.436.87-1.523 1.596.073 1.668.073 3.554.145 5.584l5.657-.362c.072-1.306.145-3.047.218-5.15q-.11-1.631 0-4.786c.942.218 2.174.507 3.77 1.015 1.379.435 2.031.798 2.031 1.16a1.235 1.235 0 01-.58.943c-.435.363-.87.653-1.233 1.016-.073.217-.217 2.103-.435 5.512l1.16-.073 2.394-3.409c.507.508 1.377 1.088 2.392 2.03 1.306 1.089 1.886 1.887 1.813 2.176-.072.508-1.16.798-3.19.87-1.668.074-3.191.219-4.714.29-.072 1.524-.218 3.7-.363 6.6.943 0 2.828-.072 5.802-.217a204.6 204.6 0 002.973-3.409c.799.508 1.886 1.305 3.41 2.32 1.086.798 1.667 1.452 1.667 1.959 0 .507-.58.725-1.668.725zm-4.931-25.672q-1.633.108-5.222.217c-1.234 0-3.263.073-6.237.218.362.435 1.088 1.16 2.103 2.175a2.978 2.978 0 011.088 1.74c0 .654-1.16.799-3.482.508-.652.218-2.174.726-4.495 1.524-1.741.58-2.684.725-2.901.362-.218-.29.362-.943 1.595-1.886.507-.362 1.45-1.16 2.973-2.393a17.877 17.877 0 001.959-2.03c-1.596.072-3.554.145-5.947.29a33.998 33.998 0 01-4.134 3.263c-1.233.87-1.958 1.16-2.321.943-.145-.073-.217-.145-.217-.29a3.393 3.393 0 01.942-1.74 37.918 37.918 0 002.829-3.772 43.83 43.83 0 002.683-5.076 36.158 36.158 0 001.958-5.004c.798.435 1.886 1.088 3.336 1.885 2.031 1.16 2.974 2.031 2.756 2.611-.145.435-1.16.87-2.973 1.233a43.454 43.454 0 01-2.9 3.916c2.392-.073 5.656-.217 9.717-.362.58-.653 1.523-1.886 2.755-3.554.799.58 1.741 1.233 2.829 1.886.435.29 1.16.725 2.103 1.378.943.652 1.233 1.16 1.016 1.522-.146.29-.726.436-1.813.436zm-2.757 32.852a23.35 23.35 0 00-1.378 1.088 46.65 46.65 0 00.29 5.656c.073 1.234.146 3.264.29 6.165a4.953 4.953 0 01-.217 2.393 7.172 7.172 0 01-1.668 1.523 3.196 3.196 0 01-1.885.87.715.715 0 01-.653-.725v-3.698c-.943.072-1.596.072-1.886.072-2.03 0-4.93.145-8.775.362a5.45 5.45 0 01-.58 1.45 3.245 3.245 0 01-2.756 1.814q-.435 0-.435-1.958c0-.435.072-1.016.145-1.74a14.398 14.398 0 00.072-1.523c.218-5.078.291-7.978.291-8.63 0-.074-.218-2.248-.58-6.528.942.363 2.32.87 4.133 1.668l10.225-.435 1.814-2.248c2.828 1.813 4.279 2.974 4.279 3.409 0 .363-.218.652-.726 1.015zm-15.955.145c.073 1.378.073 2.828.073 4.352 1.958-.073 3.336-.291 4.207-.363a22.996 22.996 0 004.206-.798c.87 1.015 1.233 1.74 1.088 2.103-.073.145-.87.29-2.539.363-1.088.072-2.393.145-3.77.217l-3.119.218v5.512c1.74-.073 5.294-.145 10.588-.363l.072-6.092c0-2.248 0-4.133.073-5.657-4.57.145-8.195.29-10.879.508zm2.612-14.577c.072 1.378.217 5.874.217 6.237a157.9 157.9 0 014.859-.217c.073-1.451.218-3.627.363-6.455z" fill="#fff"/></svg>