<svg xmlns="http://www.w3.org/2000/svg" viewBox="0 0 283.465 70.793"><path fill="#fff" d="M23.946 44.82l.008-.009m4.154 2.427v6.536H3.575v-6.536s4.072-.047 4.072-3.362v-5.825h7.957v-1.958H7.648v-9.314a4.01 4.01 0 00-4.073-2.556v-6.915h48.022v15.344H38.81s-.19-7.861-4.83-7.956c-4.642-.094-10.04 0-10.04 0v7.862s4.64.852 4.64-3.41h6.726v11.176H27.49s.19-2.747-3.552-2.557v6.488s.19 2.983 4.169 2.983zm49.63-22.827v-7.103H53.586v7.056c3.314.143 4.072 1.99 4.072 1.99V44.87c0 2.367-4.072 2.367-4.072 2.367v6.536h24.152v-6.536c-3.883-.284-4.12-2.32-4.12-2.32V26.354c1.09-2.51 4.12-1.895 4.12-1.943z"/><path d="M103.976 46.386c4.735.033 4.546-2.367 4.546-3.315s-.853-2.841-3.789-2.841v-5.778h22.78s-.047 5.674.047 5.683c-1.09-.095-3.789.71-3.789 2.368v11.271h-6.346a1.954 1.954 0 00-1.515-1.705c-1.991-.465-6.441 2.653-14.87 2.653s-23.965-5.02-23.965-18.755c0-9.093 8.336-19.038 24.248-19.038 6.63 0 8.109 1.17 12.503 2.368 3.125.852 3.22-.568 3.504-1.705h6.701v14.326l-12.857-.024c0-1.989-1.137-7.198-7.198-7.198-6.063 0-7.816 5.872-7.768 11.082.048 5.067.995 10.56 7.768 10.608zm68.481-1.136c-.664-1.326-12.883-27.942-12.883-27.942h-16.008L131.254 44.87c-.947 1.61-2.274 2.367-4.642 2.367v6.536h21.312v-6.536h-2.605c-1.73 0-1.776-1.278-1.776-2.084a5.281 5.281 0 01.71-1.799h10.774a4.414 4.414 0 01.805 1.8c0 .876-.236 2.083-1.656 2.083h-2.559v6.536h25.764v-6.536c-2.842 0-4.262-.662-4.924-1.988zm-25.527-7.317l2.699-7.293 2.723 7.293zm85.765 6.227l-3.74.048v.946a1.046 1.046 0 01-1.183.995c-1.659 0-1.47-2.225-1.47-2.89a8.698 8.698 0 00-1.8-5.54 8.091 8.091 0 00-5.066-2.936s10.134-.852 10.134-8.477c0-6.203-7.861-8.62-13.119-8.998h-37.46v7.056c1.374 0 3.93.805 3.93 2.463v18.327c0 2.132-3.599 2.084-3.93 2.084v6.536h24.154v-6.536c-3.364 0-4.073-1.042-4.073-2.084l.07-6.298 6.087.024a3.532 3.532 0 013.101 1.208c1.926 2.19 1.776 4.31 1.729 7.15-.014.77.236 7.152 11.412 7.152 11.178 0 11.273-6.536 11.273-7.152 0-.615-.049-3.078-.049-3.078zm-25.027-12.03h-8.525l-.07-7.766h8.57c.615 0 3.884 1.232 3.884 3.647s-2.605 3.978-3.859 4.12z" fill="#fff"/><path d="M257.606 16.834c-9.803-.05-25.715 3.244-25.715 19.11v.07c-.047 15.392 18.611 18.801 25.668 18.801 7.056 0 26.005-2.415 25.906-18.659-.096-15.438-16.623-19.274-25.86-19.322zm0 30.404c-5.967 0-5.635-7.814-5.635-11.223v-.072c0-6.25.236-11.579 5.635-11.579 5.4 0 5.779 6.583 5.779 11.414 0 4.736-.281 11.46-5.78 11.46zM0 36.093h15.604v1.958H1.681L0 36.093zm35.306 1.957v-1.957h18.446c.617 0 1.539.159 1.68.916.143.758.569 1.894-3.978 3.457a74.332 74.332 0 01-12.028 2.463l-1.516-2.7.853 2.7s-9.046.71-10.703.663a2.752 2.752 0 01-2.842-1.563 8.075 8.075 0 01-1.262-3.978h1.8a8.973 8.973 0 001.12 3.078 2.222 2.222 0 002.178.758c.427 0 7.294-.473 7.294-.473l-.663-2.984h2.841l1.563 2.557a82.808 82.808 0 008.43-1.231c2.983-.71 3.505-.781 3.882-1.326.192-.276-.188-.38-.52-.38zM248.772 56.6a1.39 1.39 0 011.517-1.068 1.206 1.206 0 01.738 1.6c-.293.93-1.107 1.354-1.558 1.19a1.284 1.284 0 01-.697-1.722zm34.293 6.543a8.503 8.503 0 01-.975 1.712 5.602 5.602 0 01-1.588 1.671.536.536 0 01-.451 0 .484.484 0 01-.063-.544c.15-.338.924-1.958 1.088-2.328a26.76 26.76 0 001.149-3.076 1.387 1.387 0 00-.965-1.61 1.84 1.84 0 00-1.662.657c-.286.297-1.004 1.169-1.004 1.169.133-1.355-.524-1.877-.81-1.938a1.575 1.575 0 00-1.509.471c-.757.626-1.578 1.887-1.6 1.631a1.872 1.872 0 00-1.722-2.03c-1.773-.227-3.435 1.7-3.947 2.215-.514.512-.996.789-1.365.727a.743.743 0 01-.483-.42 4.912 4.912 0 00-.04-1.118 1.382 1.382 0 00-1.2-1.148 1.535 1.535 0 00-1.303.39c-.135.112-.984.984-.984.984a4.087 4.087 0 00.072-.595.945.945 0 00-.78-1.046 2.567 2.567 0 00-2.226 1.292c-.29.482-1.64 2.745-1.855 3.098a18.538 18.538 0 01-1.856 2.563c-.144.164-.38.308-.482.267-.291-.117-.104-.39 0-.657.103-.27.307-.717.635-1.681.328-.964 1.927-4.615 1.927-4.615h-2.01l-.173.482a1.686 1.686 0 00-1.158-.729c-1.465-.193-2.975 1.272-3.55 1.949a13.175 13.175 0 00-1.312 2.051 4.406 4.406 0 01-1.394 1.374 3.073 3.073 0 01-.862.329s.922-2.278 1.067-2.667c.142-.389.963-2.482-.205-2.933-1.17-.451-2.77 1.066-3.344 1.6a8.916 8.916 0 00-1.23 1.703l.123.08a11.159 11.159 0 011.29-1.64c.401-.42 1.395-1.292 1.827-1.107.256.11.164.615.04.985-.122.368-1.298 3.417-1.886 4.901-.738 1.867-.883 2.667-2.4 4.308a1.434 1.434 0 01-1.373.389c-.246-.143-.596-.723-.432-.738a1.515 1.515 0 001.252-1.066c.127-.285.225-1.19-.35-1.313-.574-.123-1.066.512-1.19.78a2.044 2.044 0 00-.081 1.784 1.434 1.434 0 001.457 1.025c1.35.1 2.685-.82 3.71-2.399.432-.664 1.643-3.528 1.643-3.528a5.444 5.444 0 001.067-.308 6.528 6.528 0 00.943-.656 6.862 6.862 0 00-.062 1.333 1.655 1.655 0 00.779 1.435 1.941 1.941 0 001.785-.082 7.01 7.01 0 001.764-1.743 6.36 6.36 0 00.185 1.17c.075.197-.021.532.8.737.72.181 1.21-.471 1.394-.656a16.803 16.803 0 001.867-2.625c.164-.267 1.7-2.84 1.846-3.077.164-.267.625-.77.86-.636.323.183.042.677.042.677l-4.287 10.42h2.174l1.892-4.912a1.496 1.496 0 00.969 1.26c2.385.697 3.773-2.125 4.164-3.332a6.45 6.45 0 00.37-1.856 3.195 3.195 0 00.462.174 1.546 1.546 0 00.881-.123 4.471 4.471 0 00-.81 3.148 2.145 2.145 0 001.728 1.99c2.227.4 4.098-1.876 4.65-3.035a9.303 9.303 0 00.688-2.75c.004-.003.012-.014.031-.04.05-.072 1.742-1.744 1.979-1.641.236.102.062.656.03.738-.03.082-2.605 6.44-2.605 6.44h1.99s1.839-4.522 2.155-5.055a15.181 15.181 0 011.537-1.907c.113-.123.441-.319.637-.226.195.092.06.358 0 .532-.063.175-.73 2.051-.81 2.267-.196.534-.759 2.134-.8 2.36a2.766 2.766 0 00-.021 1.035 1.52 1.52 0 00.77 1.149 1.348 1.348 0 001.343-.268 10.031 10.031 0 001.404-1.763 9.607 9.607 0 00.903-1.785zm-27.32-.617c-.39.924-.78 1.703-.78 1.703a15.355 15.355 0 01-1.026 1.21c-.164.165-1.374 1.272-1.886.8-.514-.471.373-2.676 1.148-4.08.77-1.396 1.783-2.968 2.625-2.852.451.061.678.43.82.943-.279.72-.707 1.815-.902 2.276zm9.21.842c-.267.707-1.601 3.856-2.596 3.322-.42-.225-.529-1.352-.539-1.465l1.559-4.04.99-1.017a1.884 1.884 0 011.17-.564c.23.003.44.277.42.687a15.43 15.43 0 01-1.004 3.077zm7.25.062c-.584 1.312-1.974 3.6-2.652 3.538a.705.705 0 01-.66-.596 14.96 14.96 0 011.261-3.682c.399-.82 1.979-3.506 2.666-3.363 1.291.27-.03 2.79-.615 4.103zm-199.4-52.61c.06-.002.573-.018.687-.024 2.856-.147 4.569-2.327 4.7-3.5.167-1.484-.64-2.202-1.413-2.225-2.814-.084-5.304 2.43-6.418 4.894l-.008-.008a15.461 15.461 0 01-1.472 2.809 7.359 7.359 0 01-1.523 1.801c-.37.307-.803.347-.926.24-.066-.055-.1-.253.029-.72.21-.751.893-2.071 1.284-3.063a11.326 11.326 0 00.94-3.303c.088-1.171-.384-2.418-1.046-2.54-1.025-.189-2.406 1.172-2.552 1.308a16.11 16.11 0 00-1.359 1.502c.15-1.651-.494-2.762-1.018-2.829a2.898 2.898 0 00-1.895.637 8.97 8.97 0 00-2.016 1.82c.027-1.63-.589-2.36-1.086-2.457-.354-.07-.894-.104-1.704.815-1.398 1.585-4.107 7.24-5.24 8.236-.216.19-.542.672-1.042.667-.415-.005-.137-.69 0-1.044.138-.36.367-.865.883-2.115.83-2.007 2.596-6.523 2.596-6.523l-2.735-.008-.437 1.097c-.204-.367-.576-1.163-1.298-1.258-1.944-.256-3.673 1.239-4.632 2.42a11.847 11.847 0 00-1.43 2.1C41.503 11.667 40 14 39.815 14.215a1.692 1.692 0 01-1.127.666c-.416-.005-.137-.69 0-1.044.137-.36.367-.865.882-2.115C40.4 9.714 44.223.008 44.223.008L41.488 0l-2.494 6.287c-.204-.367-.577-1.163-1.298-1.258-1.944-.257-3.481 1.208-4.402 2.42a9.62 9.62 0 00-1.35 2.291 45.117 45.117 0 01-2.626 4.474 1.692 1.692 0 01-1.127.666c-.416-.005-.136-.69 0-1.044.138-.36.368-.865.883-2.115.83-2.007 2.596-6.523 2.596-6.523l-2.734-.008-.437 1.097c-.204-.367-.577-1.163-1.298-1.258-1.944-.257-3.815 1.239-4.774 2.42a9.028 9.028 0 00-1.606 2.513l-.01-.01a17.262 17.262 0 01-1.512 2.814 7.34 7.34 0 01-1.522 1.801c-.37.307-.803.347-.927.24-.065-.055-.1-.253.03-.72.21-.751.894-2.071 1.284-3.063a11.32 11.32 0 00.94-3.303c.088-1.171-.385-2.418-1.046-2.54-1.025-.189-2.406 1.171-2.552 1.308a15.945 15.945 0 00-1.358 1.502c.149-1.651-.495-2.762-1.02-2.829a2.898 2.898 0 00-1.894.637 8.95 8.95 0 00-2.016 1.82c.027-1.63-.59-2.36-1.086-2.457-.354-.07-.89-.093-1.826.697a12.708 12.708 0 00-2.94 4.054l.435.18c.387-.72.786-1.454 1.198-2.071.72-1.082 1.845-2.086 2.266-1.953.086.14-.282.98-.282.98l-3.3 8.15h2.783s1.451-3.313 2.336-5.826c.737-2.092 2.86-3.493 3.34-3.327.173.06-.036.654-.23 1.132l-3.244 8.02h2.78s1.438-3.663 2.309-5.645a8.12 8.12 0 011.389-1.979c.602-.681 1.732-1.78 2.163-1.579.14.066-.172.719-.25.937-.076.216-.63 1.59-1.076 2.7a14.422 14.422 0 00-.952 3.044 2.551 2.551 0 001.189 2.462 1.92 1.92 0 001.814-.291 9.244 9.244 0 001.625-1.961c.232-.371.465-.729.791-1.352a3.501 3.501 0 00.077 1.488 3.925 3.925 0 00.78 1.733 2.275 2.275 0 002.577.194 8.542 8.542 0 002.353-2.478 8.125 8.125 0 00.482 1.9c.37.557.321.71 1.07.881a1.883 1.883 0 001.794-.747 25.888 25.888 0 001.772-2.644 4.377 4.377 0 00.182 1.161 3.915 3.915 0 00.78 1.733 1.665 1.665 0 002.192.183 8.009 8.009 0 002.376-2.503 6.69 6.69 0 00.329 1.936c.369.557.321.71 1.07.881a1.883 1.883 0 001.794-.747 23.266 23.266 0 002.003-2.895 2.947 2.947 0 00-.018 1.413 3.914 3.914 0 00.78 1.732 2.275 2.275 0 002.577.194 8.548 8.548 0 002.352-2.478 8.129 8.129 0 00.482 1.9c.37.557.322.71 1.07.881a1.857 1.857 0 001.794-.747c.94-.917 3.439-5.686 3.832-6.274.72-1.082 1.317-2.162 1.824-2.162.213 0-.12.748-.266 1.109l-3.243 8.02h2.782s1.451-3.312 2.337-5.825c.736-2.092 2.86-3.493 3.339-3.327.173.06-.036.654-.23 1.132l-3.244 8.02h2.78s1.439-3.663 2.309-5.645a8.147 8.147 0 011.389-1.979c.602-.681 1.732-1.78 2.163-1.579.14.066-.172.719-.248.937-.077.216-.631 1.59-1.077 2.7a14.37 14.37 0 00-.952 3.044 2.55 2.55 0 001.188 2.462 1.92 1.92 0 001.814-.291 9.244 9.244 0 001.625-1.961c.179-.286.359-.563.575-.96-.003.047-.01.094-.012.139-.139 2.478 1.365 3.475 2.811 3.475 2.367 0 3.953-2.328 4.963-4.568l-.293-.16c-1 2.444-2.81 4.376-4.416 4.337-.438-.01-1.252-.122-.898-1.737a17.692 17.692 0 01.835-2.592zm3.909-5.412c.741.004.82 1.172.78 1.542a4.064 4.064 0 01-2.108 2.773 4.425 4.425 0 01-2.39.546s1.961-4.87 3.718-4.86zm-49.61 4.219c-.523 1.213-.523 1.24-.816 1.879a13.378 13.378 0 01-1.495 2.036c-.21.225-1.701 1.793-2.382 1.166-.68-.626.631-3.708 1.577-5.61.943-1.893 1.892-3.726 3.17-3.681.672.023 1.043.684.7 2.018 0 0-.492 1.582-.755 2.192zm10.481 0a190.074 190.074 0 00-.762 1.825 13.228 13.228 0 01-1.442 2.118c-.368.427-1.566 1.564-2.057 1.199-.741-.553.44-3.098 1.474-5.671.554-1.377 1.504-3.599 2.854-3.681.672-.041 1.084.684.742 2.018a16.556 16.556 0 01-.809 2.192zm11.06-.019c-.522 1.213-.522 1.24-.815 1.878a13.302 13.302 0 01-1.495 2.037c-.21.225-1.701 1.793-2.38 1.167-.682-.626.629-3.708 1.576-5.61.942-1.893 1.89-3.726 3.168-3.682.673.024 1.044.684.7 2.018 0 0-.49 1.582-.754 2.192z" fill="#fff"/></svg>