<svg xmlns="http://www.w3.org/2000/svg" viewBox="0 0 361.282 54.81"><path d="M53.764 9.543h-5.111v44.586h-9.427L16.193 23.97v20.297h5.111v9.863H0v-9.863h5.11V9.543H0V0h16.173L37.57 28.072V9.542h-5.11V0h21.304zm33.26 25.041c0 .793 0 1.583-.071 2.45H63.679c-.6 7.475 2.183 9.738 6.49 9.738 3.598 0 6.27-2.346 6.27-6.07H86.47c-.215 6.55-3.693 14.108-16.937 14.108-13.316 0-19.506-9.573-19.506-20.297 0-9.575 6.406-19.795 19.29-19.795 12.308 0 17.707 8.566 17.707 19.866m57.908-9.508h-3.407l-8.63 29.053h-11.464l-5.426-15.916-4.8 15.916H99.51l-9.685-29.053h-3.408v-9.84h20.261v9.84h-5.109l5.275 15.47 6.952-25.31h6.23l8.534 25.309 4.539-15.47h-5.11v-9.84h16.943zm14.483.221c0 1.37 1.08 2.306 4.895 3.529l5.471 1.8c5.038 1.655 11.084 5.399 11.084 12.236 0 8.062-6.046 11.948-13.46 11.948-5.902 0-10.567-2.88-11.79-4.175l-.014 3.494h-9.906V40.487h9.69c.288 4.392 4.175 6.693 7.773 6.693 2.88 0 4.247-1.222 4.247-2.734 0-1.8-1.08-2.808-5.975-4.39l-4.821-1.587c-4.895-1.583-10.438-5.18-10.438-11.73 0-7.992 7.054-12.02 13.1-12.02 6.262 0 9.256 1.738 10.766 3.468l.032-2.951h9.924v12.092H169.78c-.144-3.312-3.384-4.765-6.623-4.765-2.52 0-3.743 1.152-3.743 2.734m80.398-.221h-3.407l-8.63 29.053h-11.463l-5.426-15.916-4.8 15.916H194.39l-9.686-29.053h-3.409v-9.84h20.263v9.84h-5.11l5.275 15.47 6.954-25.31h6.23l8.534 25.309 4.539-15.47h-5.112v-9.84h16.944zm36.159 9.508c0 .793 0 1.582-.073 2.446h-23.272c-.6 7.479 2.182 9.742 6.487 9.742 3.599 0 6.271-2.346 6.271-6.07h10.03c-.214 6.55-3.693 14.108-16.936 14.108-13.316 0-19.505-9.573-19.505-20.297 0-9.575 6.404-19.796 19.29-19.796 12.306 0 17.708 8.567 17.708 19.867m37.638 0c0 .793 0 1.583-.072 2.45h-23.273c-.601 7.475 2.182 9.738 6.491 9.738 3.597 0 6.27-2.346 6.27-6.07h10.033c-.216 6.55-3.696 14.108-16.94 14.108-13.317 0-19.506-9.573-19.506-20.297 0-9.575 6.405-19.796 19.291-19.796 12.306 0 17.706 8.567 17.706 19.867m42.453 19.545h-11.707l-12.14-15.883-3.967 2.949v3.076h3.461v9.858h-17.97v-9.82h3.41V9.543h-5.11V0h16.21v31.158l8.122-5.94h-5.112v-9.982h21.888v9.982h-3.408l-8.553 6.357 9.764 12.724h5.112zm5.22-2.267a2.248 2.248 0 01-.302 1.134 2.276 2.276 0 01-.83.83 2.27 2.27 0 01-3.404-1.964 2.265 2.265 0 01.305-1.136 2.268 2.268 0 013.098-.83 2.254 2.254 0 011.132 1.966m-.906 1.361a1.926 1.926 0 10-2.725-2.723 1.926 1.926 0 102.725 2.723m-1.037-1.217a.622.622 0 01.202.112 1.044 1.044 0 01.187.24c.003.008.134.238.384.69h-.698a5.12 5.12 0 00-.457-.812.32.32 0 00-.229-.133.347.347 0 00-.074.008v.938h-.559v-2.377h1.031a.846.846 0 01.615.183.624.624 0 01.202.488.613.613 0 01-.153.411.811.811 0 01-.45.252m-.07-.411a.272.272 0 00.004-.426.552.552 0 00-.34-.082h-.28v.59h.256a.61.61 0 00.36-.082m-68.98-20.898h12.708c0-5.465-3.558-7.645-6.216-7.645-3.068 0-6.278 2.534-6.492 7.645m-37.64 0h12.707c0-5.465-3.556-7.645-6.214-7.645-3.066 0-6.279 2.534-6.494 7.645m-188.947 0h12.71c0-5.465-3.557-7.645-6.216-7.645-3.068 0-6.277 2.537-6.494 7.645m1.26-24.363v1.364h-7.505V6.334zm-.668-4.508v1.346h-6.176V1.826zm6.952 1.094a39.262 39.262 0 01-.269 4.022h1.381v1.225h-6.35V6.942h3.605a21.742 21.742 0 00.209-2.77h-3.154V2.92zm8.997 1.095v1.45H72.96v-1.45zm7.161 4.561a21.888 21.888 0 00-2.493-2.537 9.214 9.214 0 01-3.344 2.51l-.808-1.19a7.776 7.776 0 002.85-1.824 6.891 6.891 0 001.78-2.85H81.27v-1.32h5.186a8.822 8.822 0 01.157 1.068l.304-.043a8.091 8.091 0 01-1.2 2.58 24.835 24.835 0 012.824 2.45zm-.52-6.42a8.752 8.752 0 00-.28-1.381l.774-.087a10.198 10.198 0 01.304 1.328zm1.224-.148A8.77 8.77 0 0087.82.67l.764-.095a9.28 9.28 0 01.296 1.311zM93.774.905V2.13h2.815v.582c0 .956-.226 3.232-1.729 4.49a6.648 6.648 0 01-3.944 1.39l-.452-1.302c1.538-.078 3.163-.46 4.023-1.703a5.055 5.055 0 00.634-2.172h-4.118v1.842h-1.355V2.13h2.728V.905zm7.644 7.749h-1.285V5.778a11.235 11.235 0 01-2.39 1.069l-.677-1.078a11.187 11.187 0 002.876-1.32 9.622 9.622 0 002.432-2.198l1.06.826a13.936 13.936 0 01-2.016 1.85zm9.958-4.639v1.45h-7.282v-1.45zm8.224-2.068c-.72 4.908-3.396 6.203-6.306 6.629l-.565-1.278c2.12-.286 4.274-.877 5.134-4.065h-2.693a7.453 7.453 0 01-2.067 1.885l-.904-1.017a6.1 6.1 0 002.823-3.326l1.477.19a10.35 10.35 0 01-.46.982zm1.029-.99h6.706v7.844h-1.39v-.347h-3.926V8.8h-1.39zm5.316 1.303h-3.926v1.73h3.926zm0 2.988h-3.926v1.911h3.926zm4.272 1.382a8.308 8.308 0 01-1.293 1.146l-.756-1.311a8.23 8.23 0 003.014-3.336h-2.893v-1.26h3.458V.619h1.311v1.25h3.466v1.26h-2.918a8.082 8.082 0 003.058 3.31l-.765 1.337a7.727 7.727 0 01-1.312-1.129v.851h-1.555v1.407h-1.285V7.498h-1.53zm1.53-.347V4.458a8.237 8.237 0 01-1.226 1.825zm2.519 0a9.268 9.268 0 01-1.234-1.825v1.825zm5.945 1.832v.765h-1.146V5.874h-.47a6.832 6.832 0 01-.677 3.006l-.982-.912a7.357 7.357 0 00.522-3.475V.74h1.164v1.937h.495V.618h1.12v2.06h.287v1.198h-1.902v.808h1.589v3.022a5.433 5.433 0 00.574-2.727V.896h4.517v1.25h-3.38v.905h3.24a9.064 9.064 0 01-.929 3.761 4.422 4.422 0 001.182.877l-.695 1.156a4.482 4.482 0 01-1.269-1.008 5.931 5.931 0 01-1.311 1.043l-.652-.947a4.073 4.073 0 01-.469.947zm1.338-.365a4.6 4.6 0 001.182-.869 5.964 5.964 0 01-.809-2.024 9.824 9.824 0 01-.373 2.893zm.373-3.18l1.043-.243a5.307 5.307 0 00.512 1.451 4.362 4.362 0 00.4-1.572h-1.955z" fill="#fff"/></svg>