<svg xmlns="http://www.w3.org/2000/svg" viewBox="0 0 380.045 40.744"><path d="M20.374 31.781a11.408 11.408 0 1110.31-16.298h9.466a20.371 20.371 0 100 9.78h-9.466a11.41 11.41 0 01-10.31 6.518m45.117 0A11.408 11.408 0 1175.8 15.483h9.47a20.371 20.371 0 100 9.78H75.8a11.405 11.405 0 01-10.308 6.518m45.118 0a11.408 11.408 0 1110.308-16.298h9.47a20.371 20.371 0 100 9.78h-9.47a11.41 11.41 0 01-10.309 6.518m46.159-20.972l4.503 13.241h.054l4.26-13.241h5.96v19.254h-3.964V16.418h-.054l-4.719 13.645h-3.264l-4.718-13.51h-.054v13.51h-3.964V10.809h5.96zm36.682 0v3.56h-10.166v4.125h9.33v3.29h-9.33v4.72h10.382v3.559H179.05V10.809h14.4zm15.942 0a9.916 9.916 0 013.465.593 7.529 7.529 0 012.778 1.78 8.206 8.206 0 011.834 2.966 12.023 12.023 0 01.66 4.181 13.385 13.385 0 01-.538 3.883 8.57 8.57 0 01-1.632 3.074 7.619 7.619 0 01-2.723 2.036 9.208 9.208 0 01-3.844.741h-8.305V10.81zm-.296 15.695a5.427 5.427 0 001.78-.297 3.896 3.896 0 001.536-.984 4.942 4.942 0 001.08-1.794 7.883 7.883 0 00.404-2.696 11.253 11.253 0 00-.283-2.63 5.24 5.24 0 00-.93-2.008 4.142 4.142 0 00-1.712-1.282 6.843 6.843 0 00-2.63-.444h-3.02v12.135zm16.258-15.695h4.233v19.255h-4.233zm22.229-.001l7.2 19.255h-4.394l-1.457-4.287h-7.2l-1.51 4.287h-4.261l7.28-19.255zm.243 11.813l-2.428-7.066h-.052l-2.508 7.066zm28.367-11.812v7.388h7.793v-7.388h4.234v19.254h-4.234v-8.305h-7.793v8.305h-4.233V10.809h4.233zm19.053 5.703a9.653 9.653 0 011.861-3.222 8.517 8.517 0 012.98-2.157 10.536 10.536 0 017.969 0 8.542 8.542 0 012.965 2.157 9.625 9.625 0 011.863 3.222 12.062 12.062 0 01.647 4.005 11.655 11.655 0 01-.647 3.924 9.368 9.368 0 01-1.863 3.168 8.541 8.541 0 01-2.965 2.117 10.709 10.709 0 01-7.968 0 8.517 8.517 0 01-2.98-2.117 9.395 9.395 0 01-1.862-3.168 11.676 11.676 0 01-.646-3.924 12.084 12.084 0 01.646-4.005m3.871 6.365a6.35 6.35 0 00.902 2.063 4.63 4.63 0 001.619 1.47 5.605 5.605 0 004.854 0 4.634 4.634 0 001.62-1.47 6.414 6.414 0 00.9-2.063 9.726 9.726 0 00.286-2.36 10.45 10.45 0 00-.285-2.454 6.52 6.52 0 00-.902-2.117 4.59 4.59 0 00-1.619-1.483 5.605 5.605 0 00-4.854 0 4.587 4.587 0 00-1.619 1.483 6.457 6.457 0 00-.902 2.117 10.551 10.551 0 00-.283 2.454 9.821 9.821 0 00.283 2.36m34.861 5.717a10.596 10.596 0 01-12.094.012q-2.143-1.886-2.144-5.824V10.81h4.233v11.973a8.537 8.537 0 00.136 1.537 2.99 2.99 0 001.765 2.28 4.892 4.892 0 002.063.363 3.965 3.965 0 003.13-1.012 4.821 4.821 0 00.86-3.168V10.81h4.236v11.973q0 3.91-2.185 5.812m13.102-3.278a3.038 3.038 0 00.93 1.092 3.999 3.999 0 001.361.621 6.444 6.444 0 001.62.201 8.36 8.36 0 001.212-.093 4.202 4.202 0 001.213-.365 2.65 2.65 0 00.945-.74 1.86 1.86 0 00.377-1.201 1.685 1.685 0 00-.5-1.268 3.928 3.928 0 00-1.306-.808 13.086 13.086 0 00-1.833-.567q-1.027-.243-2.079-.54a18.436 18.436 0 01-2.102-.66 7.226 7.226 0 01-1.834-1.01 4.77 4.77 0 01-1.309-1.551 4.72 4.72 0 01-.498-2.252 5.047 5.047 0 01.633-2.575 5.754 5.754 0 011.66-1.82 7.244 7.244 0 012.319-1.08 9.925 9.925 0 012.587-.35 12.267 12.267 0 012.9.337 7.213 7.213 0 012.468 1.092 5.52 5.52 0 011.713 1.929 5.925 5.925 0 01.632 2.844h-4.098a3.387 3.387 0 00-.365-1.429 2.386 2.386 0 00-.822-.89 3.473 3.473 0 00-1.174-.459 7.206 7.206 0 00-1.441-.134 4.986 4.986 0 00-1.024.107 2.762 2.762 0 00-.931.378 2.35 2.35 0 00-.689.675 1.816 1.816 0 00-.268 1.024 1.719 1.719 0 00.216.917 1.918 1.918 0 00.848.648 10.904 10.904 0 001.752.591q1.12.3 2.926.756.54.109 1.498.393a7.108 7.108 0 011.9.902 5.73 5.73 0 011.631 1.658 4.716 4.716 0 01.69 2.657 5.874 5.874 0 01-.514 2.453 5.326 5.326 0 01-1.522 1.956 7.325 7.325 0 01-2.51 1.28 11.845 11.845 0 01-3.464.46 12.168 12.168 0 01-3.088-.392 7.738 7.738 0 01-2.642-1.227 6.047 6.047 0 01-1.82-2.13 6.343 6.343 0 01-.647-3.075h4.097a3.525 3.525 0 00.352 1.645m32.748-14.508v3.56h-10.166v4.125h9.33v3.29h-9.33v4.72h10.383v3.559h-14.616V10.809h14.399z" fill="#fff"/></svg>