<svg xmlns="http://www.w3.org/2000/svg" viewBox="0 0 200.526 60.41"><path d="M5.132 4.915v.388a3.363 3.363 0 00-.89.113.637.637 0 00-.47.634 1.418 1.418 0 00.057.4q.054.194.168.5l3.028 7.874L9.24 8.956l-.98-2.567a1.574 1.574 0 00-.828-.931 2.716 2.716 0 00-.992-.155v-.388h5.608v.388a4.018 4.018 0 00-1.085.113.691.691 0 00-.47.716 1.112 1.112 0 00.042.322c.027.092.095.281.204.568l3.027 7.853 2.62-7.107a6.203 6.203 0 00.306-1.074 2.389 2.389 0 00.051-.429.81.81 0 00-.551-.808 2.675 2.675 0 00-.92-.154v-.388h4.157v.388a2.434 2.434 0 00-.86.257 1.831 1.831 0 00-.797 1.024l-2.192 6.243-.846 2.409-1.327 3.78h-.324l-.916-2.396-2.425-6.45-3.216 8.846H6.21L4.648 14.68 2.882 9.77a26.253 26.253 0 00-1.527-3.725A1.602 1.602 0 000 5.304v-.389zM3.625 37.23a3.073 3.073 0 001.499-.411q.343-.29.342-1.47v-9.316a2.178 2.178 0 00-.337-1.457 2.487 2.487 0 00-1.504-.425v-.388h11.127l.07 2.996h-.53a2.965 2.965 0 00-.799-1.791 4.441 4.441 0 00-2.371-.408H8.27q-.462 0-.57.149a1.014 1.014 0 00-.107.557v4.673h3.23a2.468 2.468 0 001.709-.397 3.433 3.433 0 00.593-1.607h.49v4.837h-.49a3.474 3.474 0 00-.604-1.61 2.46 2.46 0 00-1.697-.394h-3.23v5.185q0 .623.393.735a13.277 13.277 0 002.362.113 7.97 7.97 0 003.143-.465 4.268 4.268 0 001.823-2.255h.581l-.95 3.538H3.626zm-.454 18.849a2.993 2.993 0 001.633-.392c.247-.212.371-.71.371-1.49V44.88a2.07 2.07 0 00-.371-1.487 2.883 2.883 0 00-1.633-.395v-.387h5.864a8.33 8.33 0 013.99.808 2.905 2.905 0 011.476 2.783 2.628 2.628 0 01-1.033 2.253 4.878 4.878 0 01-1.748.726 6.265 6.265 0 012.464 1.16 2.738 2.738 0 011.022 2.274 3.358 3.358 0 01-2.268 3.371 7.911 7.911 0 01-2.942.481H3.17zm7.874-7.6a2.219 2.219 0 001.33-2.201 2.494 2.494 0 00-1.534-2.531 7.007 7.007 0 00-2.578-.358 1.723 1.723 0 00-.808.112c-.102.075-.153.28-.153.616v4.733l1.994-.032a4.424 4.424 0 001.75-.338zm.675 6.609a2.52 2.52 0 001.083-2.394 2.443 2.443 0 00-1.267-2.403 7.117 7.117 0 00-3.232-.645h-.608c-.085 0-.217-.002-.394-.01v5.216q0 .542.307.7a3.888 3.888 0 001.422.16 5.33 5.33 0 002.689-.624zm35.676 2.832c-6.842-7.96-8.474-23.882-9.13-32.896-1.16 24.474-7.106 30.263-12.5 33.684l-.054-.591c7.5-7.962 9.605-20.922 10.42-37.764h-6.314a6.079 6.079 0 00-2.842.46l-.448-2.434a18.214 18.214 0 003.763.395h5.895c.053-1.579.13-3.88.13-7.171a103.822 103.822 0 00-.499-10.526l3.237 2.302a.974.974 0 01.447.922 4.708 4.708 0 01-.816 2.105c-.026 3.948-.053 8.422-.185 12.368h6.264l1.474-3.815c.132-.33.263-.856.421-.856.157 0 .315.395.5.725l1.868 3.815a2.179 2.179 0 01.263.987c0 .723-.263.723-.421.723h-10.34c1.656 19.409 5.55 27.238 12.05 30.922v.526c-1.052.92-2.474 2.172-3.183 6.118zm33.157-4.476c-1.815 1.383-2.315 2.96-3.158 5.593-3.262-4.67-5.262-13.092-6.578-21.973A205.204 205.204 0 0169 6.866l-.184.066c.027 9.408-.394 22.435-2.605 33.224-1.13 5.46-3.948 14.54-8.946 17.829l-.158-.46c3.183-4.54 5.92-14.08 7.026-19.67 1.789-9.212 2.394-22.502 2.394-30.462a35.154 35.154 0 00-.342-6.316l3.528 2.434a1.356 1.356 0 01.578 1.053 2.891 2.891 0 01-.684 1.908c.209 14.407 1.92 26.841 4.315 34.735a29.152 29.152 0 006.631 11.777zm17.632-.329c1.921-1.84 8.263-8.09 8.263-24.209 0-9.144-2.37-17.632-7.58-17.632a4.312 4.312 0 00-1.658.329 9.488 9.488 0 012.265 5.658c0 .922-1.948 11.645-3.394 18.421-2.737 12.895-3.633 13.355-4.37 13.355-.578 0-.869-.986-1.684-3.88a13.287 13.287 0 00-1.052-2.764c-.79-1.646-1.185-5.132-1.185-7.632 0-14.145 4.895-25.657 11.29-25.657 5.394 0 9.815 7.763 9.815 20.788 0 13.684-4.736 22.369-10.71 23.684zm-8.447-19.539c0 4.211.789 9.869 1.764 9.869.841 0 1.867-4.868 2.42-7.434.843-4.014 3.185-15.92 3.185-19.869a10.295 10.295 0 00-.895-4.144c-3.58 2.04-6.474 13.092-6.474 21.578zm42.604-23.39l1-2.193c.132-.321.237-.58.342-.58.131 0 .264.388.421.775l1.501 3.416a2.34 2.34 0 01.236.968 2.034 2.034 0 01-1.343 1.612 147.38 147.38 0 01-8.13 21.534h8.342l1-2.774c.158-.45.29-.708.42-.708.158 0 .29.194.501.645l1.236 2.45a3.17 3.17 0 01.369 1.418 6.188 6.188 0 01-.947 2.321c0 7.93 0 8.833.026 10.766.026.903.132 4.901.132 5.739 0 .708 0 4.321-1.474 4.321-.843 0-.895-1.356-.895-2.064v-1.549h-9.393c.025 2.452-.421 4.127-1.37 4.127-.736 0-1.053-.9-1.053-2.45 0-.903.158-5.03.184-5.93.054-4.514.08-9.995.08-11.478-3.658 5.16-6.448 6.448-7.605 6.964l-.079-.387c5.578-7.414 5.842-7.736 7.578-11.153-.026-.773-.105-3.611-.183-4.256l1.368 1.87c.526-1.096 1.606-3.676 2.657-6.383a92.275 92.275 0 004.843-15.474h-7.63c-.397 1.355-.896 2.838-1.739 5.16a8.894 8.894 0 013.08 2.513 8.568 8.568 0 011.684 5.545c0 2.127-.632 3.287-1.185 3.287-.895 0-1.157-1.676-1.71-4.9a19.463 19.463 0 00-2.106-5.866c-1.63 4.383-3.552 8.252-5.789 10.702l-.079-.45a98.545 98.545 0 007.052-23.082A30.616 30.616 0 00124.21 0l2.58 3.222a2.063 2.063 0 01.369 1.226c0 .709-.29.838-.922 1.096-.237.903-.5 1.934-1.289 4.642zm-6.656 27.079v17.472h9.393V37.265zm44.498-20.439h-10.579v15.732h4.265l.84-2.386c.211-.644.343-.837.501-.837.157 0 .395.387.472.58l1.186 2.514a2.77 2.77 0 01.37 1.29 3.618 3.618 0 01-.924 2.192c0 1.418-.025 3.288-.025 6.124 0 2.194.236 11.736.236 13.669 0 3.61-1.446 3.74-1.631 3.74-.868 0-.868-1.354-.868-2 0-.32.052-1.545.052-1.804H152.79c.027 1.096.105 4.383-1.553 4.383-.553 0-.974-.772-.974-2.32 0-.195.027-.516.027-.904.157-5.156.237-11.087.237-13.732 0-4.836 0-10.702-.42-14.442l3.236 3.934h3.921V16.827h-7.342a6.567 6.567 0 00-2.844.451l-.446-2.385a17.792 17.792 0 003.763.386h6.87c-.028-9.929-.028-11.153-.66-15.02l3.264 2.384a1.65 1.65 0 01.683 1.354 3.961 3.961 0 01-.92 2.257c0 .516-.027 6.898-.027 9.025H166l1.316-4.32c.236-.773.342-.838.42-.838.106 0 .185.13.475.71l2.105 4.32a2.165 2.165 0 01.262 1.03c0 .582-.21.645-.394.645zm-6.105 17.28H152.79v19.986h11.289zM197.63 7.543c.026 1.418.054 5.48.054 6.899 0 .58 0 2.836-1.37 2.836-.709 0-.788-.968-.734-2.965h-13.764c-.027 13.475-.027 18.826-.87 25.209-.84 6.51-2.708 14.699-4.578 18.375l-.157-.39c1.657-6.51 3.342-15.277 3.342-38.875 0-5.48-.08-13.023-.5-17.988l3.105 3.224h13.21l.71-1.935c.133-.387.211-.58.368-.58.132 0 .185.064.475.58l1.343 2.322a2.37 2.37 0 01.315 1.095 4.214 4.214 0 01-.948 2.193zm2.476 48.614h-16.817a6.176 6.176 0 00-2.842.45L180 54.22a18.64 18.64 0 003.764.387h5.026v-9.284h-3.133a6.647 6.647 0 00-2.84.388l-.422-2.323a18.176 18.176 0 003.737.387h2.658c.026-6.77-.053-7.35-.343-9.413-1.395.84-3.526 2.063-4.21 2.516-.053.192-.316 1.094-.395 1.288-.053.193-.184.58-.342.58-.184 0-.315-.516-.368-.774l-1.107-7.284a2.539 2.539 0 001.686.45 16.948 16.948 0 001.736-.063c.5-2.128 1.237-6.449 1.554-8.962h-1.737a6.366 6.366 0 00-2.842.451L182 20.18a18.371 18.371 0 003.737.387h10.42l1.027-3.288c.21-.71.29-.773.394-.773.078 0 .341.387.5.644l1.92 3.288a2.455 2.455 0 01.265.968c0 .709-.236.709-.395.709h-10.027c-.762 2.58-2.078 5.932-3.21 8.768 1.159-.129 3.685-.71 7.105-1.483a19.391 19.391 0 00-2.315-4.514l.131-.45c4.028 1.483 6.42 5.802 6.42 10.057 0 2.128-.63 3.095-1.21 3.095-.525 0-.947-.838-1.131-1.676a33.622 33.622 0 00-1.369-4.964 7.138 7.138 0 01-.972.644c-1.5.903-2.289 1.353-4.66 2.708l2.422 1.548a1.424 1.424 0 01.659 1.289c0 .58-.08.71-.764 1.805v4.835h3.763l.895-3.481c.054-.194.21-.838.395-.838.106 0 .237.13.5.709l1.685 3.48a1.97 1.97 0 01.263.967c0 .646-.263.711-.422.711h-7.079v9.284h5.474l1.053-3.676c.182-.643.29-.838.42-.838.132 0 .185.129.473.71l1.896 3.675a2.606 2.606 0 01.263.967c0 .71-.263.71-.42.71zM195.58 5.415h-13.738c0 1.032-.026 6.189-.026 7.35h13.763z" fill="#fff"/></svg>