<svg id="レイヤー_2" data-name="レイヤー 2" xmlns="http://www.w3.org/2000/svg" viewBox="0 0 300 154.15"><defs><style>.cls-1{fill:#fff;}</style></defs><path class="cls-1" d="M525.76,466.57V460h0c0-32.5-17.92-50.95-40.76-50.95-26.88,0-45.67,23.94-45.67,56.44,0,34.48,18.44,56.44,45.67,56.44,18.09,0,32.15-11,39.18-32.94l-4.75-2.64c-5.79,15.81-15.1,26.36-29.86,26.36-20,0-22.84-23.72-22.84-43.27v-2.82Zm-41.81-51c11.94,0,14.4,15.15,14.4,27.67v16.67H466.73v-6.57c.52-14.05.87-37.77,17.22-37.77" transform="translate(-330.65 -409)"/><path class="cls-1" d="M521.55,512.66H534.2V418.23H521.55v-6.59l38,0v15h.35c6-11.64,15.64-17.57,27.93-17.57,17.75,0,30.22,11.86,30.22,36.23v67.42h12.65v6.59h-50.6v-6.59H592.7V440.85c0-17.13-6.5-21.3-13.7-21.3-9.84,0-19.5,11.86-19.5,30.31v62.8h12.65v6.59h-50.6Z" transform="translate(-330.65 -409)"/><path class="cls-1" d="M389.22,411.61H330.65v6.56h12.68V556.09H330.65v6.62h50.68v-6.59H368.61l0-38.17a43.78,43.78,0,0,0,18.56,3.84c26.88,0,45.65-22.53,45.65-56.25,0-43.27-29.37-53.92-43.64-53.92m-2,103.58c-16.63,0-18.48-20-18.61-43v-54h13c18.47,0,23.84,20.7,23.84,47.28,0,26.19,0,49.73-18.25,49.73" transform="translate(-330.65 -409)"/><path class="cls-1" d="M489.89,542.37c-.19-2.32-1.42-3-2.47-3-1.5,0-2.33,1-2.33,2.67,0,4.61,9.45,6.82,9.45,14.17,0,4.46-3,6.94-7.35,6.94s-6.78-3.45-7-7.5l4.42-.64c.19,2.74,1.28,4.09,2.78,4.09a2.39,2.39,0,0,0,2.7-2.48c0-5.36-9.45-6.78-9.45-14.55,0-4.31,2.62-6.75,7.2-6.75,3.78,0,6,2.74,6.45,6.57Z" transform="translate(-330.65 -409)"/><path class="cls-1" d="M509.21,539.75h-4.5v-4h13.65v4h-4.5v23h-4.65Z" transform="translate(-330.65 -409)"/><path class="cls-1" d="M529.53,535.7h4.65v20.44c0,2,.79,3,2.48,3s2.47-1,2.47-3V535.7h4.65V556c0,4.65-2.7,7.2-7.12,7.2s-7.13-2.55-7.13-7.2Z" transform="translate(-330.65 -409)"/><path class="cls-1" d="M556.72,535.7h6.9c4.8,0,7.35,2.62,7.35,8.18V554.6c0,5.55-2.55,8.17-7.35,8.17h-6.9ZM561.37,559H563c2.48,0,3.34-.94,3.34-3.79V543.31c0-2.85-.86-3.78-3.34-3.78h-1.61Z" transform="translate(-330.65 -409)"/><path class="cls-1" d="M584.54,562.77V535.7h4.66v27.07Z" transform="translate(-330.65 -409)"/><path class="cls-1" d="M602.77,542.26c0-3.82,2.25-6.94,7.13-6.94s7.12,3.12,7.12,6.94v14c0,3.83-2.25,6.94-7.12,6.94s-7.13-3.11-7.13-6.94Zm4.65,13.84c0,2,.6,3,2.48,3s2.47-1,2.47-3V542.37c0-2-.6-3-2.47-3s-2.48,1-2.48,3Z" transform="translate(-330.65 -409)"/></svg>