<svg id="レイヤー_3" data-name="レイヤー 3" xmlns="http://www.w3.org/2000/svg" viewBox="0 0 300 169.33"><defs><style>.cls-1{fill:#fff;}</style></defs><path class="cls-1" d="M571.28,375.62V369h0c0-32.5-17.92-50.94-40.76-50.94-26.88,0-45.67,23.93-45.67,56.43,0,34.48,18.44,56.44,45.67,56.44,18.1,0,32.15-11,39.18-32.94L565,395.36c-5.8,15.81-15.11,26.35-29.87,26.35-20,0-22.84-23.72-22.84-43.26v-2.83Zm-41.81-51c11.94,0,14.41,15.15,14.41,27.66V369H512.25v-6.57c.53-14.06.88-37.77,17.22-37.77" transform="translate(-376.17 -318.06)"/><path class="cls-1" d="M567.07,421.71h12.65V327.29H567.07V320.7l37.95,0v15h.35c6-11.64,15.64-17.57,27.94-17.57,17.74,0,30.21,11.86,30.21,36.24v67.41h12.65v6.59h-50.6v-6.59h12.65v-71.8c0-17.13-6.5-21.3-13.7-21.3-9.84,0-19.5,11.85-19.5,30.3v62.8h12.65v6.59h-50.6Z" transform="translate(-376.17 -318.06)"/><path class="cls-1" d="M434.75,320.66H376.17v6.56h12.69V465.14H376.17v6.62h50.69v-6.59H414.14l0-38.17a43.75,43.75,0,0,0,18.56,3.84c26.88,0,45.64-22.53,45.64-56.24,0-43.28-29.37-53.93-43.63-53.93m-2,103.58c-16.64,0-18.49-20-18.62-43l0-54h13c18.48,0,23.85,20.71,23.85,47.29,0,26.19,0,49.72-18.25,49.72" transform="translate(-376.17 -318.06)"/><path class="cls-1" d="M585,469.92c1.81-1.8,4.8-5.54,7.76-9.06,2.58-3.07,5.12-3.36,8.69-.32a96.45,96.45,0,0,1,8.31,8.23c2.75,3,7.26,7.75,10.17,11.11l-5.37,5.82c-2.5-3.2-6.19-7.95-8.48-10.7a103.53,103.53,0,0,0-7.3-8c-1.27-1.11-2.09-1.15-3.11.21-1.44,1.88-4.1,5.69-5.66,7.91-1,1.43-2,3-2.79,4.18l-5.86-6A42.3,42.3,0,0,0,585,469.92Zm27.72-15.41a5.51,5.51,0,1,1,0,11,5.51,5.51,0,0,1,0-11Zm0,7.91a2.38,2.38,0,1,0-2.38-2.38A2.39,2.39,0,0,0,612.72,462.42Z" transform="translate(-376.17 -318.06)"/><path class="cls-1" d="M650.15,475.82a39.59,39.59,0,0,0,15.67-16.4l3.85,7c-3.28,5.83-9.1,11.53-15.95,15.54a43.75,43.75,0,0,1-14.67,5.42l-4.23-6.56A42,42,0,0,0,650.15,475.82Zm1.4-13.4-5.08,5.2a84.41,84.41,0,0,0-10.3-9l4.72-5A82.45,82.45,0,0,1,651.55,462.42Z" transform="translate(-376.17 -318.06)"/></svg>